<?xml version="1.0" encoding="utf-8"?>
<!-- Generator: Adobe Illustrator 22.0.0, SVG Export Plug-In . SVG Version: 6.00 Build 0)  -->
<svg fill="#fff" version="1.1" id="logo.svg" xmlns="http://www.w3.org/2000/svg" xmlns:xlink="http://www.w3.org/1999/xlink" x="0px" y="0px"
	 viewBox="0 0 69 71" style="enable-background:new 0 0 69 71;" xml:space="preserve">
<g>
	<path d="M65.3,69.9H4.4l30.5-58.2L65.3,69.9z M7.7,67.9H62L34.9,16L7.7,67.9z"/>
</g>
<g>
	<path d="M34.2,68.4c-0.1,0-0.2,0-0.3,0C15.2,68.3,0,52.9,0,34.2C0,25,3.6,16.4,10.2,10C16.6,3.5,25.2,0,34.4,0c0.1,0,0.1,0,0.2,0h0
		c9.1,0.1,17.7,3.7,24.1,10.2s9.9,15.1,9.8,24.3C68.3,53.3,53,68.4,34.2,68.4z M34.4,2C16.6,2,2.1,16.4,2,34.2
		c0,17.6,14.3,32.1,31.9,32.2c0.1,0,0.2,0,0.3,0c17.6,0,32.1-14.3,32.2-31.9c0.1-8.6-3.2-16.7-9.2-22.9c-6-6.1-14.1-9.6-22.7-9.6
		C34.4,2,34.4,2,34.4,2z"/>
</g>
<g id="Ellipse_1_copy_8">
	<path d="M34.9,63.9c2,0,3.6,1.6,3.5,3.6c0,2-1.6,3.6-3.6,3.5c-2,0-3.5-1.6-3.5-3.6C31.3,65.4,32.9,63.8,34.9,63.9z"/>
</g>
<g id="Ellipse_1_copy_9">
	<circle cx="62.8" cy="67.4" r="3.6"/>
</g>
<g id="Ellipse_1_copy_11">
	<path d="M6,63.9c2,0,3.6,1.6,3.5,3.6C9.6,69.4,8,71,6,71c-2,0-3.5-1.6-3.5-3.6C2.5,65.4,4.1,63.8,6,63.9z"/>
</g>
</svg>
